<svg height="512pt" viewBox="0 -48 512 512" width="512pt" xmlns="http://www.w3.org/2000/svg"><path d="m462.65625 84.859375c-45.679688-14.761719-90.371094-36.226563-125.839844-60.441406-23.394531-15.976563-51.339844-24.417969-80.816406-24.417969s-57.421875 8.441406-80.816406 24.417969c-35.46875 24.214843-80.160156 45.679687-125.839844 60.441406-29.515625 9.539063-49.34375 36.804687-49.34375 67.851563 0 14.324218 4.246094 28.160156 12.285156 40.019531l51.296875 75.6875c3.453125 5.09375 9.664063 7.5625 15.671875 6.226562 58.652344-13.035156 118.121094-19.644531 176.746094-19.644531s118.09375 6.609375 176.746094 19.644531c1.082031.238281 2.175781.355469 3.257812.355469 4.902344 0 9.585938-2.410156 12.414063-6.585938l51.296875-75.683593c8.039062-11.859375 12.285156-25.695313 12.285156-40.019531 0-31.046876-19.828125-58.3125-49.34375-67.851563zm-138.335938 67.621094-28.96875 19.3125c-7.6875 13.824219-22.441406 23.207031-39.351562 23.207031s-31.664062-9.382812-39.355469-23.207031l-28.964843-19.3125c-6.894532-4.59375-8.757813-13.910157-4.160157-20.800781 4.59375-6.894532 13.910157-8.753907 20.800781-4.160157l9.648438 6.429688c6.480469-16.90625 22.871094-28.949219 42.03125-28.949219s35.550781 12.042969 42.03125 28.949219l9.648438-6.429688c6.890624-4.59375 16.207031-2.734375 20.800781 4.160157 4.59375 6.890624 2.734375 16.207031-4.160157 20.800781zm0 0"/><path d="m256 135c-8.269531 0-15 6.730469-15 15s6.730469 15 15 15 15-6.730469 15-15-6.730469-15-15-15zm0 0"/><path d="m439.253906 305.355469c-121.597656-27.019531-244.910156-27.019531-366.507812 0-6.863282 1.527343-11.746094 7.613281-11.746094 14.644531 0 27.65625 21.886719 52.613281 61.628906 70.277344 35.875 15.941406 83.238282 24.722656 133.371094 24.722656s97.496094-8.78125 133.371094-24.722656c39.742187-17.664063 61.628906-42.621094 61.628906-70.277344 0-7.03125-4.882812-13.117188-11.746094-14.644531zm0 0"/></svg>